<svg width="50" height="42" viewBox="0 0 50 42" fill="none" xmlns="http://www.w3.org/2000/svg">
<path d="M0.399997 8.60004L5.4 1.80005C7.4 1.00004 9.33332 0.600037 11.2 0.600037C12.2667 0.600037 13.4667 0.800041 14.8 1.20004C16 1.73338 17.1333 2.40005 18.2 3.20004C19.2667 4.13338 20.2 5.26671 21 6.60005C21.6667 7.93338 22 9.46671 22 11.2C22 13.2 21.8 15.2667 21.4 17.4C21 19.5334 20.2667 21.8667 19.2 24.4C18 26.9334 16.4 29.6 14.4 32.4C12.2667 35.2 9.53333 38.2667 6.2 41.6C5.79999 41.6 5.46666 41.6 5.2 41.6C4.79999 41.7334 4.46666 41.8 4.2 41.8C1.93333 41.8 0.666657 40.8 0.399994 38.8C0.533326 38.2667 0.933325 37.4667 1.59999 36.4C2.13333 35.3334 2.79999 34.2667 3.59999 33.2C4.26666 32.1334 4.93333 31.1334 5.59999 30.2C6.13333 29.4 6.46666 28.9334 6.59999 28.8C8.06666 26.1334 9.06666 23.1334 9.59999 19.8L8.60001 19.8C7.8 19.8 7 19.6667 6.2 19.4C5.26666 19.2667 4.39999 18.8 3.59999 18C2.8 17.2 2.13333 16.0667 1.59999 14.6C0.933327 13.1334 0.533328 11.1334 0.399997 8.60004ZM28.4 8.60005L33.4 1.80005C35.4 1.00005 37.3333 0.600039 39.2 0.600039C40.2667 0.60004 41.4667 0.800043 42.8 1.20005C44 1.73338 45.1333 2.40005 46.2 3.20005C47.2667 4.13338 48.2 5.26672 49 6.60005C49.6667 7.93338 50 9.46672 50 11.2001C50 13.2 49.8 15.2667 49.4 17.4001C49 19.5334 48.2667 21.8667 47.2 24.4C46 26.9334 44.4 29.6 42.4 32.4001C40.2667 35.2 37.5333 38.2667 34.2 41.6001C33.8 41.6001 33.4667 41.6001 33.2 41.6001C32.8 41.7334 32.4667 41.8 32.2 41.8C29.9333 41.8 28.6667 40.8 28.4 38.8001C28.5333 38.2667 28.9333 37.4667 29.6 36.4C30.1333 35.3334 30.8 34.2667 31.6 33.2C32.2667 32.1334 32.9333 31.1334 33.6 30.2C34.1333 29.4 34.4667 28.9334 34.6 28.8C36.0667 26.1334 37.0667 23.1334 37.6 19.8L36.6 19.8C35.8 19.8 35 19.6667 34.2 19.4C33.2667 19.2667 32.4 18.8 31.6 18C30.8 17.2 30.1333 16.0667 29.6 14.6001C28.9333 13.1334 28.5333 11.1334 28.4 8.60005Z" fill="#DBDBDB"/>
</svg>
