<svg width="78" height="78" viewBox="0 0 78 78" fill="none" xmlns="http://www.w3.org/2000/svg">
<path d="M1.30054 1.30029H76.7005V18.2003H1.30054V1.30029Z" fill="#F9ADB1"/>
<path d="M70.8498 11.7007C69.2983 11.7007 67.8103 12.317 66.7132 13.4141C65.6161 14.5112 64.9998 15.9992 64.9998 17.5507V18.2007C64.9998 16.4768 64.315 14.8235 63.096 13.6045C61.877 12.3855 60.2237 11.7007 58.4998 11.7007C56.7759 11.7007 55.1226 12.3855 53.9036 13.6045C52.6846 14.8235 51.9998 16.4768 51.9998 18.2007L40.0934 19.3913L40.2998 18.8832L27.1861 14.4567C26.4122 15.5516 25.9977 16.8599 25.9998 18.2007C25.9998 16.4768 25.315 14.8235 24.096 13.6045C22.877 12.3855 21.2237 11.7007 19.4998 11.7007C17.7759 11.7007 16.1226 12.3855 14.9036 13.6045C13.6846 14.8235 12.9998 16.4768 12.9998 18.2007V17.5507C12.9998 15.9992 12.3835 14.5112 11.2864 13.4141C10.1893 12.317 8.70132 11.7007 7.1498 11.7007C5.59829 11.7007 4.11032 12.317 3.01323 13.4141C1.91614 14.5112 1.2998 15.9992 1.2998 17.5507C1.29979 22.2994 1.88221 27.0302 3.034 31.6372L6.4998 45.5007L12.0178 27.8429C12.6687 25.7602 12.9998 23.5907 12.9998 21.4086V22.082C12.9998 22.9124 13.1634 23.7347 13.4813 24.5019C13.7991 25.269 14.265 25.9661 14.8523 26.5532L19.2756 30.9764C19.3353 31.0361 19.4162 31.0696 19.5006 31.0696C19.585 31.0696 19.666 31.0361 19.7257 30.9764L24.1489 26.5532C24.7361 25.9662 25.202 25.2693 25.5198 24.5022C25.8377 23.7352 26.0013 22.9131 26.0014 22.0828C26.0017 23.7588 26.6674 25.3662 27.8523 26.5516L32.2756 30.9748C32.3052 31.0045 32.3404 31.0281 32.3791 31.0442C32.4179 31.0603 32.4595 31.0686 32.5014 31.0686C32.5434 31.0686 32.585 31.0603 32.6237 31.0442C32.6625 31.0281 32.6977 31.0045 32.7273 30.9748L37.1506 26.5516C38.3349 25.3659 39 23.7586 38.9998 22.0828C39 23.7588 39.6658 25.3662 40.8507 26.5516L45.2739 30.9748C45.3035 31.0045 45.3387 31.0281 45.3775 31.0442C45.4163 31.0603 45.4578 31.0686 45.4998 31.0686C45.5418 31.0686 45.5833 31.0603 45.6221 31.0442C45.6609 31.0281 45.6961 31.0045 45.7257 30.9748L50.1489 26.5516C51.3338 25.3662 51.9996 23.7588 51.9998 22.0828C51.9999 22.9131 52.1636 23.7352 52.4814 24.5022C52.7993 25.2693 53.2651 25.9662 53.8523 26.5532L58.2756 30.9764C58.3352 31.0361 58.4162 31.0696 58.5006 31.0696C58.585 31.0696 58.666 31.0361 58.7257 30.9764L63.1489 26.5532C63.7359 25.966 64.2015 25.2689 64.5191 24.5017C64.8367 23.7345 65 22.9123 64.9998 22.082V21.4086C64.9998 23.5909 65.3309 25.7606 65.9818 27.8436L71.4998 45.5007L74.9656 31.6372C76.1174 27.0302 76.6998 22.2994 76.6998 17.5507C76.6998 15.9992 76.0835 14.5112 74.9864 13.4141C73.8893 12.317 72.4013 11.7007 70.8498 11.7007Z" fill="#E4E4E2"/>
<path d="M50.3466 9.10021C50.108 9.10027 49.874 9.03429 49.6706 8.90959C48.4817 8.18388 47.1158 7.80002 45.723 7.80021H45.2769C44.1939 7.79861 43.1233 8.03075 42.1382 8.48076C41.8249 8.62042 41.469 8.63057 41.1483 8.509C40.8275 8.38743 40.5678 8.144 40.4257 7.83175C40.2836 7.5195 40.2707 7.16375 40.3898 6.84204C40.5089 6.52033 40.7503 6.25874 41.0615 6.11427C42.3845 5.50989 43.8224 5.19811 45.2769 5.20021H45.723C47.5937 5.20015 49.4282 5.71586 51.0249 6.69066C51.2668 6.8384 51.4539 7.06119 51.5575 7.3251C51.6611 7.589 51.6756 7.87955 51.5988 8.15246C51.522 8.42537 51.358 8.66569 51.132 8.83679C50.9059 9.00789 50.6301 9.10039 50.3466 9.10021Z" fill="#EEA5A9"/>
<path d="M57.1998 33.8003H59.7998V36.4003H57.1998V33.8003Z" fill="#C0F5F9"/>
<path d="M57.1998 39.0005H59.7998V44.2005H57.1998V39.0005Z" fill="#C0F5F9"/>
<path d="M38.9998 18.2007V19.5007L36.1999 20.3847C35.3134 20.6736 34.3666 20.7248 33.4541 20.5331C32.5416 20.3415 31.6953 19.9138 30.9999 19.2927C30.9382 19.2358 30.8764 19.1773 30.8163 19.1172L28.1123 16.4132C27.5868 15.8874 27.2595 15.1959 27.186 14.4562C27.9813 13.3273 29.1154 12.4811 30.4239 12.0401C31.7325 11.5991 33.1474 11.5863 34.4637 12.0035C35.78 12.4207 36.9293 13.2463 37.7449 14.3605C38.5604 15.4748 39 16.8198 38.9998 18.2007Z" fill="#FBB540"/>
<path d="M33.7999 18.2006C34.5178 18.2006 35.0999 17.6186 35.0999 16.9006C35.0999 16.1826 34.5178 15.6006 33.7999 15.6006C33.0819 15.6006 32.4999 16.1826 32.4999 16.9006C32.4999 17.6186 33.0819 18.2006 33.7999 18.2006Z" fill="#DA922A"/>
<path d="M51.9999 18.2007H49.6924C49.2027 18.2006 48.7206 18.3215 48.2888 18.5525C47.8571 18.7835 47.4891 19.1176 47.2175 19.5251C46.7324 20.2537 46.0113 20.7932 45.1754 21.053C44.3394 21.3128 43.4396 21.2771 42.6269 20.9518L38.9999 19.5007V18.2007C39.0001 16.62 39.5761 15.0935 40.6202 13.9068C41.6643 12.72 43.105 11.9542 44.6728 11.7527C44.7264 11.7462 44.7816 11.7397 44.8353 11.7348C44.8889 11.7299 44.9458 11.7234 44.9994 11.7202C45.1018 11.7121 45.2025 11.7072 45.3033 11.7039C45.3699 11.7023 45.4349 11.7007 45.4999 11.7007C45.8312 11.7008 46.162 11.7258 46.4895 11.7754C46.5968 11.7917 46.704 11.8112 46.8096 11.8323C47.1237 11.8981 47.4327 11.986 47.7343 12.0956C47.8334 12.1313 47.9325 12.1703 48.0284 12.2109C49.205 12.7095 50.209 13.5433 50.9152 14.6084C51.6213 15.6735 51.9986 16.9228 51.9999 18.2007Z" fill="#FBB540"/>
<path d="M44.1998 18.2006C44.9178 18.2006 45.4998 17.6186 45.4998 16.9006C45.4998 16.1826 44.9178 15.6006 44.1998 15.6006C43.4818 15.6006 42.8998 16.1826 42.8998 16.9006C42.8998 17.6186 43.4818 18.2006 44.1998 18.2006Z" fill="#DA922A"/>
<path d="M53.2998 49.4004C52.955 49.4004 52.6244 49.2634 52.3806 49.0196C52.1368 48.7758 51.9998 48.4452 51.9998 48.1004V23.4004C51.9998 23.1747 52.0586 22.9528 52.1703 22.7567C52.2821 22.5606 52.4429 22.397 52.6371 22.2819L55.8608 20.3716C55.8963 20.2734 55.9077 20.1682 55.8939 20.0647C55.8802 19.9612 55.8417 19.8626 55.7817 19.7772C55.7218 19.6917 55.6422 19.6219 55.5496 19.5738C55.457 19.5256 55.3542 19.5004 55.2498 19.5004H48.0998C47.755 19.5004 47.4244 19.3634 47.1806 19.1196C46.9368 18.8758 46.7998 18.5452 46.7998 18.2004C46.7998 17.8556 46.9368 17.5249 47.1806 17.2812C47.4244 17.0374 47.755 16.9004 48.0998 16.9004H55.2498C55.8534 16.9004 56.445 17.0685 56.9584 17.3858C57.4719 17.7031 57.8868 18.1571 58.1567 18.6969C58.4266 19.2368 58.5409 19.8411 58.4867 20.4423C58.4325 21.0434 58.2119 21.6175 57.8498 22.1004C57.7474 22.2367 57.6193 22.3516 57.4726 22.4386L54.5998 24.1412V48.1004C54.5998 48.4452 54.4628 48.7758 54.219 49.0196C53.9752 49.2634 53.6446 49.4004 53.2998 49.4004Z" fill="#6CBAE5"/>
<path d="M53.2998 48.1006C54.3341 48.1006 55.3261 48.5115 56.0575 49.2429C56.7889 49.9743 57.1998 50.9662 57.1998 52.0006V76.7006H49.3998V52.0006C49.3998 50.9662 49.8107 49.9743 50.5421 49.2429C51.2735 48.5115 52.2654 48.1006 53.2998 48.1006Z" fill="#428DC5"/>
<path d="M53.2998 59.8003H57.1998V62.4003H53.2998V59.8003Z" fill="#3775A4"/>
<path d="M53.2998 65.0005H57.1998V67.6005H53.2998V65.0005Z" fill="#3775A4"/>
<path d="M53.2998 70.2002H57.1998V72.8002H53.2998V70.2002Z" fill="#3775A4"/>
<path d="M49.3998 55.9006H57.1998V52.0006C57.1998 50.9662 56.7889 49.9743 56.0575 49.2429C55.3261 48.5115 54.3341 48.1006 53.2998 48.1006C52.2654 48.1006 51.2735 48.5115 50.5421 49.2429C49.8107 49.9743 49.3998 50.9662 49.3998 52.0006V55.9006Z" fill="#4799CF"/>
<path d="M57.1998 33.8003H59.7998V36.4003H57.1998V33.8003Z" fill="black"/>
<path d="M57.1998 39.0005H59.7998V44.2005H57.1998V39.0005Z" fill="black"/>
<path d="M76.7 4.06289e-08H1.3C0.955218 4.06289e-08 0.624558 0.136964 0.380761 0.380761C0.136964 0.624558 0 0.955218 0 1.3V18.2C0 18.2392 0.00243739 18.2777 0.00584989 18.3159C0.0653977 22.9143 0.658427 27.4902 1.77304 31.9519L5.23884 45.8153C5.30748 46.0904 5.46421 46.3355 5.68512 46.5133C5.90603 46.6911 6.17901 46.7918 6.46246 46.8H6.50032C6.77731 46.7999 7.04704 46.7114 7.27019 46.5473C7.49334 46.3832 7.65824 46.1521 7.74085 45.8877L13.2589 28.2301C13.3768 27.8528 13.481 27.4721 13.5791 27.0902C13.6929 27.2202 13.8092 27.3478 13.9323 27.4709L18.3557 31.8942C18.6594 32.1973 19.0709 32.3676 19.5 32.3676C19.9291 32.3676 20.3406 32.1973 20.6443 31.8942L25.0677 27.4709C25.4147 27.1238 25.7278 26.7444 26.0026 26.3377C26.2748 26.7445 26.5859 27.1238 26.9316 27.4703L31.3547 31.8934C31.6587 32.1968 32.0708 32.3673 32.5003 32.3673C32.9299 32.3673 33.3419 32.1968 33.6459 31.8934L38.069 27.4703C38.4156 27.1227 38.7274 26.7421 39 26.3339C39.2728 26.7421 39.5848 27.1227 39.9316 27.4703L44.3547 31.8934C44.6587 32.1968 45.0708 32.3673 45.5003 32.3673C45.9299 32.3673 46.3419 32.1968 46.6459 31.8934L51.069 27.4703C51.4147 27.1238 51.7259 26.7445 51.998 26.3377L52.0006 26.3414V46.9646C50.885 47.2542 49.8969 47.9055 49.1911 48.8167C48.4852 49.7279 48.1015 50.8474 48.1 52V76.7C48.1 77.0448 48.237 77.3754 48.4808 77.6192C48.7246 77.863 49.0552 78 49.4 78H57.2C57.5448 78 57.8754 77.863 58.1192 77.6192C58.363 77.3754 58.5 77.0448 58.5 76.7V52C58.4985 50.8475 58.1149 49.728 57.4092 48.8169C56.7035 47.9057 55.7155 47.2543 54.6 46.9646V29.1384L57.3557 31.894C57.6594 32.1972 58.0709 32.3674 58.5 32.3674C58.9291 32.3674 59.3406 32.1972 59.6443 31.894L64.0677 27.4708C64.1907 27.3476 64.3074 27.2199 64.4208 27.09C64.5183 27.4719 64.6232 27.8527 64.7411 28.23L70.2591 45.8877C70.3418 46.1522 70.5067 46.3833 70.7299 46.5474C70.9531 46.7115 71.2229 46.8 71.5 46.8H71.5379C71.8212 46.7918 72.0942 46.6912 72.3151 46.5135C72.536 46.3358 72.6927 46.0908 72.7615 45.8157L76.2273 31.9524C77.3419 27.4909 77.9349 22.9152 77.9945 18.317C77.9979 18.2785 78.0003 18.2398 78.0003 18.2005V1.3C78.0003 1.12925 77.9667 0.960181 77.9013 0.802436C77.836 0.644692 77.7402 0.501367 77.6194 0.380646C77.4987 0.259926 77.3553 0.164175 77.1976 0.0988632C77.0398 0.0335512 76.8707 -4.26458e-05 76.7 4.06289e-08ZM75.4 2.6V12.0386C74.6225 11.3954 73.7174 10.9242 72.7445 10.6563C71.7716 10.3883 70.753 10.3297 69.7557 10.4842C68.7585 10.6387 67.8054 11.0029 66.9592 11.5527C66.113 12.1025 65.393 12.8255 64.8466 13.6739C64.1134 12.6435 63.1404 11.807 62.0116 11.2368C60.8828 10.6666 59.6321 10.3798 58.3676 10.4011C57.1032 10.4224 55.8629 10.7513 54.754 11.3592C53.645 11.9672 52.7008 12.8359 52.0028 13.8905C51.714 13.4571 51.383 13.0533 51.0148 12.6851C50.1981 11.8677 49.2099 11.2422 48.1217 10.8537C47.0335 10.4652 45.8725 10.3235 44.7229 10.4389C43.5732 10.5543 42.4636 10.9238 41.4743 11.5208C40.485 12.1177 39.6408 12.9272 39.0028 13.8905C38.714 13.4571 38.383 13.0533 38.0148 12.6851C37.2108 11.8812 36.2409 11.2627 35.1728 10.873C34.1047 10.4833 32.9644 10.3319 31.8317 10.4292C30.6989 10.5265 29.6011 10.8703 28.6152 11.4364C27.6293 12.0026 26.779 12.7774 26.124 13.7067C26.1193 13.7134 26.1149 13.7202 26.1102 13.7269L26.1032 13.7373C26.0674 13.7886 26.0328 13.8403 25.9984 13.8921C25.3005 12.8373 24.3563 11.9682 23.2473 11.36C22.1384 10.7517 20.898 10.4227 19.6333 10.4012C18.3687 10.3797 17.1179 10.6664 15.9889 11.2366C14.8599 11.8068 13.8867 12.6433 13.1534 13.6739C12.607 12.8255 11.887 12.1025 11.0408 11.5527C10.1946 11.0029 9.24148 10.6387 8.24425 10.4842C7.24702 10.3297 6.22837 10.3883 5.25546 10.6563C4.28256 10.9242 3.37751 11.3954 2.6 12.0386V2.6H75.4ZM55.9 20.15C55.8999 20.2254 55.8867 20.3003 55.861 20.3712L53.3 21.8887V19.5H55.25C55.4224 19.5 55.5877 19.5685 55.7096 19.6904C55.8315 19.8123 55.9 19.9776 55.9 20.15ZM48.1 16.9C47.7879 16.9003 47.4863 17.0129 47.2504 17.2173C47.0144 17.4216 46.8599 17.7039 46.8149 18.0128C46.5571 18.2478 46.3288 18.5134 46.1352 18.8037C45.8138 19.2822 45.3384 19.6364 44.7878 19.8073C44.2373 19.9783 43.6449 19.9557 43.109 19.7434L40.3 18.6199V18.2162C40.3 18.2109 40.3 18.2058 40.3 18.2C40.3 18.1941 40.3 18.1932 40.3 18.1896C40.3031 16.925 40.7669 15.7049 41.6045 14.7575C42.4421 13.8101 43.5962 13.2004 44.8509 13.0423C46.1055 12.8842 47.3748 13.1887 48.4212 13.8987C49.4676 14.6088 50.2195 15.6757 50.5362 16.9H48.1ZM37.7 18.5471L35.8093 19.1441C35.1411 19.3643 34.4269 19.4056 33.7377 19.2639C33.0486 19.1222 32.4086 18.8025 31.8815 18.3365C31.8328 18.2913 31.784 18.245 31.7353 18.1972L28.547 15.0091L28.5308 14.8426C29.2189 14.0296 30.14 13.4475 31.1696 13.175C32.1993 12.9025 33.2878 12.9528 34.2879 13.319C35.2881 13.6852 36.1517 14.3497 36.7619 15.2227C37.3721 16.0956 37.6996 17.1349 37.7 18.2V18.5471ZM10.7772 27.4545L6.6391 40.6963L4.29536 31.3212C3.16986 26.8173 2.6005 22.1924 2.6 17.55C2.6 16.3433 3.07937 15.186 3.93266 14.3327C4.78595 13.4794 5.94326 13 7.15 13C8.35673 13 9.51404 13.4794 10.3673 14.3327C11.2206 15.186 11.7 16.3433 11.7 17.55V21.4079C11.7004 23.4585 11.3893 25.4973 10.7772 27.4544V27.4545ZM19.5 29.3616L15.7709 25.6323C15.3032 25.1671 14.9323 24.6137 14.6798 24.0042C14.4273 23.3947 14.2982 22.7412 14.3 22.0815V18.2C14.3 16.8209 14.8479 15.4982 15.823 14.523C16.7982 13.5479 18.1209 13 19.5 13C20.8791 13 22.2018 13.5479 23.177 14.523C24.1521 15.4982 24.7 16.8209 24.7 18.2V22.0815C24.7018 22.7412 24.5727 23.3947 24.3202 24.0042C24.0677 24.6137 23.6968 25.1671 23.229 25.6323L19.5 29.3616ZM36.2297 25.6316L32.5 29.3616L28.7703 25.6316C27.8321 24.6882 27.3038 23.4128 27.3 22.0823V18.2C27.3008 17.9623 27.3178 17.7248 27.3507 17.4894L29.8972 20.0362C29.9697 20.1084 30.0443 20.1792 30.1218 20.2507C31.3314 21.3462 32.9072 21.9491 34.539 21.9408C35.2353 21.9404 35.9274 21.8337 36.5914 21.6242L37.7 21.2737V22.0823C37.6962 23.4128 37.1679 24.6882 36.2297 25.6316ZM50.7 22.0823C50.6962 23.4128 50.1679 24.6882 49.2297 25.6316L45.5 29.3616L41.7703 25.6316C40.8321 24.6882 40.3038 23.4128 40.3 22.0823V21.4201L42.1434 22.1575C42.7426 22.3971 43.3821 22.52 44.0274 22.5197C44.8713 22.5206 45.7024 22.3135 46.4474 21.917C47.1923 21.5204 47.8281 20.9465 48.2986 20.2459C48.4513 20.0162 48.6586 19.8279 48.9018 19.6977C49.145 19.5676 49.4166 19.4997 49.6925 19.5H50.7V22.0823ZM50.7 75.4V57.2H55.9V59.8H53.3V62.4H55.9V65H53.3V67.6H55.9V70.2H53.3V72.8H55.9V75.4H50.7ZM55.9 52V54.6H50.7V52C50.7 51.3104 50.9739 50.6491 51.4615 50.1615C51.9491 49.6739 52.6104 49.4 53.3 49.4C53.9896 49.4 54.6509 49.6739 55.1385 50.1615C55.6261 50.6491 55.9 51.3104 55.9 52ZM63.7 22.0815C63.7018 22.7412 63.5727 23.3947 63.3202 24.0042C63.0677 24.6137 62.6968 25.1671 62.229 25.6323L58.5 29.3616L54.7709 25.6323C54.7122 25.5737 54.6552 25.5141 54.6 25.4535V24.1415L57.4727 22.4391C57.6195 22.3519 57.7477 22.2367 57.85 22.1C58.2054 21.6265 58.4246 21.0648 58.4839 20.4757C58.5431 19.8866 58.4402 19.2926 58.1861 18.7578C57.9321 18.223 57.5367 17.7678 57.0427 17.4415C56.5487 17.1152 55.9748 16.9302 55.3832 16.9065C55.339 16.902 55.2945 16.8999 55.25 16.9H53.4646C53.7806 15.6741 54.533 14.6056 55.5807 13.8948C56.6283 13.1841 57.8993 12.88 59.1552 13.0395C60.4111 13.199 61.5657 13.8112 62.4024 14.7613C63.2391 15.7113 63.7005 16.934 63.7 18.2V22.0815ZM71.3609 40.6963L67.2228 27.4545C66.6107 25.4974 66.2995 23.4586 66.3 21.4079V17.55C66.3 16.3433 66.7794 15.186 67.6327 14.3327C68.4859 13.4794 69.6433 13 70.85 13C72.0567 13 73.214 13.4794 74.0673 14.3327C74.9206 15.186 75.4 16.3433 75.4 17.55C75.3995 22.1924 74.8301 26.8173 73.7046 31.3212L71.3609 40.6963Z" fill="black"/>
<path d="M42.1382 8.48076C43.1233 8.03075 44.1939 7.79861 45.2769 7.80021H45.723C47.1158 7.80007 48.4818 8.18399 49.6706 8.90976C49.9646 9.08319 50.3151 9.13399 50.6463 9.05119C50.9775 8.96838 51.2628 8.75863 51.4407 8.46722C51.6185 8.17581 51.6746 7.82614 51.5968 7.49373C51.519 7.16133 51.3136 6.87287 51.0249 6.69066C49.4282 5.71586 47.5937 5.20015 45.723 5.20021H45.2769C43.8224 5.19811 42.3845 5.50989 41.0615 6.11427C40.7503 6.25874 40.5089 6.52033 40.3898 6.84204C40.2707 7.16375 40.2836 7.5195 40.4257 7.83175C40.5678 8.144 40.8275 8.38743 41.1483 8.509C41.469 8.63057 41.8249 8.62042 42.1382 8.48076Z" fill="black"/>
<path d="M33.7999 18.2006C34.5178 18.2006 35.0999 17.6186 35.0999 16.9006C35.0999 16.1826 34.5178 15.6006 33.7999 15.6006C33.0819 15.6006 32.4999 16.1826 32.4999 16.9006C32.4999 17.6186 33.0819 18.2006 33.7999 18.2006Z" fill="black"/>
<path d="M44.1998 18.2006C44.9178 18.2006 45.4998 17.6186 45.4998 16.9006C45.4998 16.1826 44.9178 15.6006 44.1998 15.6006C43.4818 15.6006 42.8998 16.1826 42.8998 16.9006C42.8998 17.6186 43.4818 18.2006 44.1998 18.2006Z" fill="black"/>
</svg>
