<svg width="87" height="78" viewBox="0 0 87 78" fill="none" xmlns="http://www.w3.org/2000/svg">
<path d="M1.44434 7.22217H85.2221V73.6666C85.2221 74.4328 84.9177 75.1676 84.376 75.7094C83.8342 76.2511 83.0994 76.5555 82.3332 76.5555H4.33322C3.56704 76.5555 2.83224 76.2511 2.29047 75.7094C1.7487 75.1676 1.44434 74.4328 1.44434 73.6666V7.22217Z" fill="#EBEBEB"/>
<path d="M1.44434 7.22217H85.2221V18.7777H1.44434V7.22217Z" fill="#428DC5"/>
<path d="M34.1738 34.6629C33.5663 35.7134 32.83 36.6839 31.9819 37.5518C29.4105 40.1779 25.935 41.7256 22.2628 41.8798C18.5906 42.034 14.9977 40.7832 12.2151 38.3819C9.43254 35.9807 7.66949 32.6094 7.28475 28.9541C6.90002 25.2989 7.9225 21.6344 10.1441 18.7064C12.3657 15.7784 15.6195 13.8069 19.2434 13.1932C22.8672 12.5794 26.5887 13.3696 29.6506 15.4027C32.7124 17.4359 34.8845 20.5594 35.7248 24.1374C36.5652 27.7155 36.0105 31.4793 34.1738 34.6629Z" fill="#8DC79D"/>
<path d="M32.9185 33.9384C32.3721 34.8835 31.7099 35.7566 30.9472 36.5375C28.6337 38.9002 25.5069 40.2926 22.2031 40.4314C18.8993 40.5702 15.6668 39.4449 13.1633 37.2845C10.6599 35.1242 9.07365 32.0911 8.72748 28.8025C8.38131 25.514 9.30119 22.2171 11.2999 19.5828C13.2987 16.9485 16.226 15.1748 19.4863 14.6226C22.7466 14.0703 26.0948 14.7812 28.8495 16.6104C31.6043 18.4396 33.5585 21.2497 34.3145 24.4688C35.0706 27.6879 34.5716 31.0742 32.9192 33.9384H32.9185Z" fill="#AAE5C8"/>
<path d="M34.1736 34.6629C33.5661 35.7134 32.8297 36.6838 31.9817 37.5518H24.5518C23.4029 37.5506 22.3014 37.0937 21.489 36.2813C20.6766 35.4689 20.2197 34.3674 20.2185 33.2185V30.3296H23.1074V33.2185C23.1074 33.6016 23.2596 33.969 23.5305 34.2399C23.8013 34.5107 24.1687 34.6629 24.5518 34.6629H34.1736Z" fill="#428DC5"/>
<path d="M20.2222 56.3332C22.6155 56.3332 24.5556 54.3931 24.5556 51.9998C24.5556 49.6066 22.6155 47.6665 20.2222 47.6665C17.829 47.6665 15.8889 49.6066 15.8889 51.9998C15.8889 54.3931 17.829 56.3332 20.2222 56.3332Z" fill="#DBDBDB"/>
<path d="M20.2222 70.778C22.6155 70.778 24.5556 68.8379 24.5556 66.4447C24.5556 64.0514 22.6155 62.1113 20.2222 62.1113C17.829 62.1113 15.8889 64.0514 15.8889 66.4447C15.8889 68.8379 17.829 70.778 20.2222 70.778Z" fill="#DBDBDB"/>
<path d="M20.2222 53.4443C20.0324 53.4445 19.8444 53.4072 19.6691 53.3347C19.4938 53.2621 19.3345 53.1556 19.2004 53.0213L16.3115 50.1324C16.0406 49.8615 15.8884 49.4941 15.8884 49.111C15.8884 48.7279 16.0406 48.3605 16.3115 48.0896C16.5824 47.8187 16.9498 47.6665 17.3329 47.6665C17.716 47.6665 18.0834 47.8187 18.3543 48.0896L20.329 50.0643L26.5416 45.0941C26.8407 44.8547 27.2228 44.7439 27.6036 44.7861C27.9844 44.8284 28.3329 45.0202 28.5723 45.3193C28.8117 45.6184 28.9225 46.0005 28.8803 46.3813C28.8381 46.7621 28.6463 47.1106 28.3472 47.35L21.1249 53.1278C20.8689 53.3331 20.5504 53.4447 20.2222 53.4443Z" fill="#DC4D41"/>
<path d="M33.2222 47.6665H36.1111V50.5554H33.2222V47.6665Z" fill="#DBDBDB"/>
<path d="M39 47.6665H54.8889V50.5554H39V47.6665Z" fill="#DBDBDB"/>
<path d="M33.2222 53.4443H41.8888V56.3332H33.2222V53.4443Z" fill="#DBDBDB"/>
<path d="M44.7778 53.4443H53.4445V56.3332H44.7778V53.4443Z" fill="#DBDBDB"/>
<path d="M46.2222 37.5553C48.6155 37.5553 50.5556 35.6152 50.5556 33.222C50.5556 30.8288 48.6155 28.8887 46.2222 28.8887C43.829 28.8887 41.8889 30.8288 41.8889 33.222C41.8889 35.6152 43.829 37.5553 46.2222 37.5553Z" fill="#DBDBDB"/>
<path d="M46.2222 34.6665C46.0324 34.6667 45.8444 34.6294 45.6691 34.5568C45.4938 34.4842 45.3345 34.3777 45.2004 34.2434L42.3115 31.3545C42.0406 31.0836 41.8884 30.7162 41.8884 30.3331C41.8884 29.95 42.0406 29.5826 42.3115 29.3117C42.5824 29.0408 42.9498 28.8887 43.3329 28.8887C43.716 28.8887 44.0834 29.0408 44.3543 29.3117L46.3291 31.2865L52.5416 26.3163C52.8408 26.0769 53.2228 25.9661 53.6036 26.0083C53.9844 26.0505 54.3329 26.2423 54.5723 26.5415C54.8117 26.8406 54.9225 27.2226 54.8803 27.6035C54.8381 27.9843 54.6463 28.3327 54.3472 28.5722L47.1249 34.35C46.8689 34.5552 46.5504 34.6669 46.2222 34.6665Z" fill="#DC4D41"/>
<path d="M59.222 28.8887H62.1109V31.7776H59.222V28.8887Z" fill="#DBDBDB"/>
<path d="M64.9999 28.8887H77.9999V31.7776H64.9999V28.8887Z" fill="#DBDBDB"/>
<path d="M59.222 34.6665H70.7776V37.5554H59.222V34.6665Z" fill="#DBDBDB"/>
<path d="M73.6665 34.6665H77.9998V37.5554H73.6665V34.6665Z" fill="#DBDBDB"/>
<path d="M33.2222 62.1108H36.1111V64.9997H33.2222V62.1108Z" fill="#DBDBDB"/>
<path d="M39 62.1108H54.8889V64.9997H39V62.1108Z" fill="#DBDBDB"/>
<path d="M33.2222 67.8887H43.3333V70.7776H33.2222V67.8887Z" fill="#DBDBDB"/>
<path d="M46.2222 67.8887H64.9999V70.7776H46.2222V67.8887Z" fill="#DBDBDB"/>
<path d="M37.5554 4.33322C37.5554 2.73774 36.262 1.44434 34.6665 1.44434C33.071 1.44434 31.7776 2.73774 31.7776 4.33322V10.111C31.7776 11.7065 33.071 12.9999 34.6665 12.9999C36.262 12.9999 37.5554 11.7065 37.5554 10.111V4.33322Z" fill="#DBDBDB"/>
<path d="M20.2221 4.33322C20.2221 2.73774 18.9287 1.44434 17.3332 1.44434C15.7377 1.44434 14.4443 2.73774 14.4443 4.33322V10.111C14.4443 11.7065 15.7377 12.9999 17.3332 12.9999C18.9287 12.9999 20.2221 11.7065 20.2221 10.111V4.33322Z" fill="#DBDBDB"/>
<path d="M54.8887 4.33322C54.8887 2.73774 53.5953 1.44434 51.9999 1.44434C50.4044 1.44434 49.111 2.73774 49.111 4.33322V10.111C49.111 11.7065 50.4044 12.9999 51.9999 12.9999C53.5953 12.9999 54.8887 11.7065 54.8887 10.111V4.33322Z" fill="#DBDBDB"/>
<path d="M72.2221 4.33322C72.2221 2.73774 70.9287 1.44434 69.3332 1.44434C67.7377 1.44434 66.4443 2.73774 66.4443 4.33322V10.111C66.4443 11.7065 67.7377 12.9999 69.3332 12.9999C70.9287 12.9999 72.2221 11.7065 72.2221 10.111V4.33322Z" fill="#DBDBDB"/>
<path d="M78.9696 60.0329C78.0646 63.4617 75.9305 66.438 72.9734 68.3954C70.0163 70.3528 66.4428 71.1545 62.9329 70.648C59.423 70.1416 56.2219 68.3622 53.9389 65.6487C51.6558 62.9352 50.4502 59.4769 50.5514 55.9322C50.6527 52.3874 52.0538 49.0036 54.4881 46.4249C56.9224 43.8461 60.2199 42.2525 63.7529 41.9472C67.286 41.642 70.8079 42.6465 73.6484 44.7695C76.4889 46.8925 78.4497 49.9858 79.1574 53.4607C79.6008 55.6367 79.5366 57.8857 78.9696 60.0329Z" fill="#FBB540"/>
<path d="M78.9696 60.0331C78.1665 63.0488 76.4103 65.7242 73.9629 67.6605C71.5154 69.5968 68.5078 70.6903 65.3882 70.778H65L62.1111 62.1113H58.7022C58.0343 62.1117 57.387 61.8805 56.8704 61.4571C56.3539 61.0338 56.0001 60.4444 55.8693 59.7894L54.8889 54.8891L59.2222 53.4447L62.1111 49.1113H70.7778L78.9696 60.0331Z" fill="#DA922A"/>
<path d="M75.1112 54.8891V60.6669C75.1112 61.4331 74.8068 62.1679 74.265 62.7096C73.7232 63.2514 72.9884 63.5558 72.2223 63.5558C71.4561 63.5558 70.7213 63.2514 70.1795 62.7096C69.6377 62.1679 69.3334 61.4331 69.3334 60.6669V49.1113H70.7778L75.1112 54.8891Z" fill="#834B10"/>
<path d="M62.1111 54.8887H65V57.7776H62.1111V54.8887Z" fill="#834B10"/>
<path d="M21.6638 31.7751C20.1319 31.7733 18.6634 31.164 17.5802 30.0808C16.4971 28.9977 15.8878 27.5291 15.886 25.9973V23.1084C15.886 22.8402 15.9607 22.5772 16.1017 22.3491C16.2427 22.1209 16.4445 21.9365 16.6844 21.8165L19.5733 20.3721L20.8653 22.956L18.7749 24.0012V25.9973C18.7749 26.7635 19.0792 27.4983 19.621 28.04C20.1628 28.5818 20.8976 28.8862 21.6638 28.8862C22.4299 28.8862 23.1647 28.5818 23.7065 28.04C24.2483 27.4983 24.5527 26.7635 24.5527 25.9973V24.0012L22.4622 22.956L23.7542 20.3721L26.6431 21.8165C26.883 21.9365 27.0848 22.1209 27.2258 22.3491C27.3668 22.5772 27.4415 22.8402 27.4415 23.1084V25.9973C27.4398 27.5291 26.8305 28.9977 25.7474 30.0809C24.6642 31.1641 23.1956 31.7733 21.6638 31.7751Z" fill="#4799CF"/>
<path d="M85.2222 5.77778H73.6667V4.33333C73.6667 3.18406 73.2101 2.08186 72.3975 1.2692C71.5848 0.456546 70.4826 0 69.3333 0C68.1841 0 67.0819 0.456546 66.2692 1.2692C65.4566 2.08186 65 3.18406 65 4.33333V5.77778H56.3333V4.33333C56.3333 3.18406 55.8768 2.08186 55.0641 1.2692C54.2515 0.456546 53.1493 0 52 0C50.8507 0 49.7485 0.456546 48.9359 1.2692C48.1232 2.08186 47.6667 3.18406 47.6667 4.33333V5.77778H39V4.33333C39 3.18406 38.5435 2.08186 37.7308 1.2692C36.9181 0.456546 35.8159 0 34.6667 0C33.5174 0 32.4152 0.456546 31.6025 1.2692C30.7899 2.08186 30.3333 3.18406 30.3333 4.33333V5.77778H21.6667V4.33333C21.6667 3.18406 21.2101 2.08186 20.3975 1.2692C19.5848 0.456546 18.4826 0 17.3333 0C16.1841 0 15.0819 0.456546 14.2692 1.2692C13.4565 2.08186 13 3.18406 13 4.33333V5.77778H1.44444C1.06135 5.77778 0.693954 5.92996 0.423068 6.20085C0.152182 6.47173 0 6.83913 0 7.22222V73.6667C0.001338 74.8155 0.458314 75.9169 1.27068 76.7293C2.08305 77.5417 3.18447 77.9987 4.33333 78H82.3333C83.4822 77.9987 84.5836 77.5417 85.396 76.7293C86.2084 75.9169 86.6653 74.8155 86.6667 73.6667V7.22222C86.6667 6.83913 86.5145 6.47173 86.2436 6.20085C85.9727 5.92996 85.6053 5.77778 85.2222 5.77778ZM67.8889 4.33333C67.8889 3.95024 68.0411 3.58284 68.312 3.31196C68.5828 3.04107 68.9502 2.88889 69.3333 2.88889C69.7164 2.88889 70.0838 3.04107 70.3547 3.31196C70.6256 3.58284 70.7778 3.95024 70.7778 4.33333V10.1111C70.7778 10.4942 70.6256 10.8616 70.3547 11.1325C70.0838 11.4034 69.7164 11.5556 69.3333 11.5556C68.9502 11.5556 68.5828 11.4034 68.312 11.1325C68.0411 10.8616 67.8889 10.4942 67.8889 10.1111V4.33333ZM50.5556 4.33333C50.5556 3.95024 50.7077 3.58284 50.9786 3.31196C51.2495 3.04107 51.6169 2.88889 52 2.88889C52.3831 2.88889 52.7505 3.04107 53.0214 3.31196C53.2923 3.58284 53.4444 3.95024 53.4444 4.33333V10.1111C53.4444 10.4942 53.2923 10.8616 53.0214 11.1325C52.7505 11.4034 52.3831 11.5556 52 11.5556C51.6169 11.5556 51.2495 11.4034 50.9786 11.1325C50.7077 10.8616 50.5556 10.4942 50.5556 10.1111V4.33333ZM33.2222 4.33333C33.2222 3.95024 33.3744 3.58284 33.6453 3.31196C33.9162 3.04107 34.2836 2.88889 34.6667 2.88889C35.0498 2.88889 35.4172 3.04107 35.688 3.31196C35.9589 3.58284 36.1111 3.95024 36.1111 4.33333V10.1111C36.1111 10.4942 35.9589 10.8616 35.688 11.1325C35.4172 11.4034 35.0498 11.5556 34.6667 11.5556C34.2836 11.5556 33.9162 11.4034 33.6453 11.1325C33.3744 10.8616 33.2222 10.4942 33.2222 10.1111V4.33333ZM34.4036 24.8538C34.7482 26.5266 34.7576 28.251 34.4312 29.9274C34.1048 31.6038 33.4492 33.1988 32.5022 34.6201C32.4922 34.6351 32.4814 34.649 32.4717 34.6638H24.5527C24.1697 34.6633 23.8026 34.511 23.5318 34.2402C23.261 33.9694 23.1087 33.6023 23.1082 33.2193V31.5922C24.3477 31.2703 25.4454 30.5465 26.2296 29.534C27.0137 28.5216 27.4399 27.2777 27.4416 25.9971V23.1082C27.4415 22.84 27.3668 22.5771 27.2258 22.3489C27.0848 22.1207 26.883 21.9363 26.6431 21.8163L23.7542 20.3719L22.4622 22.9558L24.5527 24.0011V25.9971C24.5527 26.7633 24.2483 27.4981 23.7065 28.0399C23.1648 28.5816 22.43 28.886 21.6638 28.886C20.8976 28.886 20.1628 28.5816 19.621 28.0399C19.0793 27.4981 18.7749 26.7633 18.7749 25.9971V24.0011L20.8654 22.9558L19.5733 20.3719L16.6844 21.8163C16.4445 21.9363 16.2427 22.1207 16.1017 22.3489C15.9607 22.5771 15.886 22.84 15.886 23.1082V25.9971C15.8877 27.2777 16.3139 28.5216 17.098 29.534C17.8822 30.5464 18.9799 31.2703 20.2193 31.5922V33.2193C20.2206 34.3682 20.6776 35.4697 21.49 36.282C22.3023 37.0944 23.4038 37.5514 24.5527 37.5527H29.8408C27.6346 39.3378 24.905 40.3522 22.0685 40.441C19.232 40.5298 16.4443 39.6882 14.1308 38.0445C11.8173 36.4009 10.1051 34.0455 9.25539 31.3377C8.40571 28.63 8.46522 25.7186 9.42484 23.0479C10.3845 20.3771 12.1915 18.0936 14.5702 16.5459C16.949 14.9982 19.7687 14.2712 22.5993 14.4758C25.4298 14.6805 28.1157 15.8055 30.247 17.6793C32.3784 19.5532 33.8381 22.0728 34.4036 24.8538ZM15.8889 4.33333C15.8889 3.95024 16.0411 3.58284 16.312 3.31196C16.5828 3.04107 16.9502 2.88889 17.3333 2.88889C17.7164 2.88889 18.0838 3.04107 18.3547 3.31196C18.6256 3.58284 18.7778 3.95024 18.7778 4.33333V10.1111C18.7778 10.4942 18.6256 10.8616 18.3547 11.1325C18.0838 11.4034 17.7164 11.5556 17.3333 11.5556C16.9502 11.5556 16.5828 11.4034 16.312 11.1325C16.0411 10.8616 15.8889 10.4942 15.8889 10.1111V4.33333ZM2.88889 8.66667H13V10.1111C12.9998 10.7121 13.125 11.3065 13.3674 11.8564C13.6099 12.4063 13.9644 12.8996 14.4083 13.3048C12.4869 14.2935 10.7877 15.6644 9.41507 17.3333H2.88889V8.66667ZM83.7778 73.6667C83.7773 74.0496 83.625 74.4168 83.3542 74.6876C83.0834 74.9584 82.7163 75.1107 82.3333 75.1111H4.33333C3.95037 75.1107 3.58322 74.9584 3.31243 74.6876C3.04164 74.4168 2.88932 74.0496 2.88889 73.6667V20.2222H7.51815C6.28362 22.6436 5.69111 25.3413 5.79731 28.0572C5.90351 30.7731 6.70486 33.4163 8.12471 35.7339C9.54455 38.0515 11.5354 39.966 13.9067 41.2942C16.278 42.6224 18.9505 43.3199 21.6685 43.3199C24.3864 43.3199 27.0589 42.6224 29.4302 41.2942C31.8016 39.966 33.7924 38.0515 35.2122 35.7339C36.6321 33.4163 37.4334 30.7731 37.5396 28.0572C37.6458 25.3413 37.0533 22.6436 35.8188 20.2222H83.7778V73.6667ZM83.7778 17.3333H33.9184C32.3996 15.4967 30.4883 14.0241 28.325 13.0239C26.1618 12.0237 23.8018 11.5214 21.4188 11.5539C21.583 11.0906 21.6668 10.6027 21.6667 10.1111V8.66667H30.3333V10.1111C30.3333 11.2604 30.7899 12.3626 31.6025 13.1752C32.4152 13.9879 33.5174 14.4444 34.6667 14.4444C35.8159 14.4444 36.9181 13.9879 37.7308 13.1752C38.5435 12.3626 39 11.2604 39 10.1111V8.66667H47.6667V10.1111C47.6667 11.2604 48.1232 12.3626 48.9359 13.1752C49.7485 13.9879 50.8507 14.4444 52 14.4444C53.1493 14.4444 54.2515 13.9879 55.0641 13.1752C55.8768 12.3626 56.3333 11.2604 56.3333 10.1111V8.66667H65V10.1111C65 11.2604 65.4566 12.3626 66.2692 13.1752C67.0819 13.9879 68.1841 14.4444 69.3333 14.4444C70.4826 14.4444 71.5848 13.9879 72.3975 13.1752C73.2101 12.3626 73.6667 11.2604 73.6667 10.1111V8.66667H83.7778V17.3333Z" fill="black"/>
<path d="M49.3735 53.4445H44.7778V56.3334H49.11C49.1133 58.3102 49.4832 60.2693 50.2009 62.1112H39V65.0001H51.6873C52.3757 66.0556 53.1874 67.0254 54.1051 67.889H46.2222V70.7779H58.3917C60.4636 71.7317 62.7173 72.226 64.9982 72.2268C65.1209 72.2268 65.2437 72.2253 65.3667 72.2223H65.3884C68.1189 72.1559 70.7861 71.3867 73.1327 69.9891C75.4793 68.5914 77.426 66.6125 78.7849 64.2432C80.1437 61.874 80.8689 59.1945 80.8905 56.4633C80.912 53.7321 80.2291 51.0414 78.9077 48.6511C77.5863 46.2607 75.671 44.2513 73.3467 42.8169C71.0224 41.3824 68.3676 40.5714 65.6385 40.462C62.9094 40.3526 60.1982 40.9485 57.7666 42.1923C55.3349 43.4361 53.2649 45.2857 51.7564 47.5626C51.7337 47.5969 51.7135 47.6324 51.6909 47.6669H39V50.5558H50.2013C49.8337 51.4901 49.5565 52.4574 49.3735 53.4445ZM67.5915 69.0761C67.0754 69.1797 66.5535 69.2521 66.0286 69.2928L63.4828 61.6542C63.3868 61.3664 63.2027 61.1162 62.9565 60.9389C62.7102 60.7617 62.4145 60.6664 62.1111 60.6667H58.7022C58.3684 60.6663 58.045 60.5505 57.7869 60.3389C57.5287 60.1273 57.3516 59.833 57.2856 59.5058L56.5554 55.856L59.679 54.8149C59.9837 54.7133 60.2459 54.5131 60.424 54.2458L62.8841 50.5556H67.8889V60.6667C67.8889 61.816 68.3454 62.9182 69.1581 63.7309C69.9708 64.5435 71.073 65.0001 72.2222 65.0001C73.3715 65.0001 74.4737 64.5435 75.2864 63.7309C76.099 62.9182 76.5556 61.816 76.5556 60.6667V59.2223L77.3738 60.3134C76.6672 62.5106 75.3887 64.4803 73.6694 66.0202C71.9502 67.5602 69.8521 68.6149 67.5906 69.0761H67.5915ZM70.7778 60.6667V51.5185L70.8126 51.5651L73.6667 55.3705V60.6667C73.6667 61.0498 73.5145 61.4172 73.2436 61.6881C72.9727 61.959 72.6053 62.1112 72.2222 62.1112C71.8391 62.1112 71.4717 61.959 71.2008 61.6881C70.93 61.4172 70.7778 61.0498 70.7778 60.6667ZM54.1645 49.1578C55.7075 46.8293 57.9595 45.0598 60.5868 44.1111C63.214 43.1625 66.077 43.0853 68.7516 43.8908C71.4263 44.6964 73.7703 46.3419 75.4367 48.5837C77.1031 50.8255 78.0032 53.5444 78.0036 56.3377L71.9333 48.2445C71.8159 48.088 71.6679 47.9569 71.4984 47.8593C71.3288 47.7617 71.1411 47.6996 70.9468 47.6767C70.8907 47.6701 70.8343 47.6668 70.7778 47.6667H62.1111C61.8733 47.6667 61.6392 47.7255 61.4296 47.8376C61.2199 47.9498 61.0412 48.1121 60.9093 48.3099L58.2952 52.2308L54.4314 53.5186C54.0973 53.6299 53.8155 53.8594 53.6388 54.1639C53.462 54.4684 53.4026 54.827 53.4717 55.1723L54.4519 60.0715C54.65 61.0532 55.1813 61.9364 55.9559 62.5714C56.7304 63.2063 57.7007 63.554 58.7022 63.5556H61.07L62.9417 69.1709C60.795 68.8264 58.7691 67.949 57.0492 66.6189C55.3294 65.2888 53.9707 63.5486 53.0975 61.5576C52.2243 59.5665 51.8644 57.3882 52.0508 55.2221C52.2373 53.056 52.9641 50.9712 54.1647 49.1587L54.1645 49.1578Z" fill="black"/>
<path d="M20.2221 60.667C19.0794 60.667 17.9623 61.0059 17.0122 61.6407C16.062 62.2756 15.3215 63.178 14.8841 64.2337C14.4468 65.2895 14.3324 66.4512 14.5554 67.572C14.7783 68.6927 15.3286 69.7222 16.1366 70.5303C16.9446 71.3383 17.9741 71.8886 19.0949 72.1115C20.2157 72.3345 21.3774 72.22 22.4332 71.7827C23.4889 71.3454 24.3913 70.6049 25.0262 69.6547C25.661 68.7046 25.9999 67.5875 25.9999 66.4448C25.9982 64.9129 25.3889 63.4443 24.3057 62.3612C23.2226 61.278 21.754 60.6687 20.2221 60.667ZM20.2221 69.3337C19.6507 69.3337 19.0922 69.1642 18.6171 68.8468C18.1421 68.5294 17.7718 68.0782 17.5531 67.5503C17.3345 67.0224 17.2773 66.4416 17.3887 65.8812C17.5002 65.3208 17.7753 64.806 18.1794 64.402C18.5834 63.998 19.0981 63.7229 19.6585 63.6114C20.2189 63.4999 20.7998 63.5571 21.3276 63.7758C21.8555 63.9944 22.3067 64.3647 22.6241 64.8398C22.9416 65.3149 23.111 65.8734 23.111 66.4448C23.1101 67.2107 22.8054 67.9449 22.2639 68.4865C21.7223 69.0281 20.988 69.3328 20.2221 69.3337Z" fill="black"/>
<path d="M26.5416 45.0941L23.6858 47.3787C22.5593 46.5342 21.1635 46.1295 19.76 46.2406C18.3565 46.3517 17.0417 46.9709 16.0621 47.9821C15.0825 48.9933 14.5053 50.3271 14.4388 51.7334C14.3723 53.1397 14.8211 54.522 15.7009 55.6211C16.5808 56.7202 17.8313 57.4606 19.2181 57.7036C20.6048 57.9466 22.0326 57.6754 23.2337 56.9409C24.4349 56.2065 25.3268 55.0591 25.7424 53.7139C26.1581 52.3688 26.0688 50.9182 25.4913 49.6342L28.3472 47.35C28.6463 47.1106 28.8381 46.7621 28.8803 46.3813C28.9225 46.0005 28.8118 45.6184 28.5723 45.3193C28.3329 45.0202 27.9844 44.8284 27.6036 44.7861C27.2228 44.7439 26.8408 44.8547 26.5416 45.0941ZM20.2222 49.111C20.5812 49.1114 20.937 49.1793 21.271 49.311L20.3294 50.0643L19.477 49.2119C19.7199 49.1458 19.9704 49.1118 20.2222 49.111ZM20.2222 54.8887C19.7788 54.8904 19.3411 54.7896 18.9432 54.5943C18.5452 54.3989 18.1978 54.1143 17.9279 53.7625C17.658 53.4108 17.4731 53.0015 17.3875 52.5665C17.3018 52.1315 17.3178 51.6827 17.4342 51.2549L19.2008 53.0213C19.4521 53.2726 19.7873 53.4224 20.1422 53.4421C20.4971 53.4617 20.8468 53.3498 21.1244 53.1278L23.0744 51.5672C23.1402 51.9787 23.1156 52.3995 23.0023 52.8005C22.8889 53.2015 22.6896 53.573 22.4182 53.8891C22.1467 54.2052 21.8096 54.4584 21.4304 54.631C21.0511 54.8037 20.6388 54.8916 20.2222 54.8887Z" fill="black"/>
<path d="M62.1111 54.8887H65V57.7776H62.1111V54.8887Z" fill="black"/>
<path d="M33.2222 47.6665H36.1111V50.5554H33.2222V47.6665Z" fill="black"/>
<path d="M33.2222 53.4443H41.8888V56.3332H33.2222V53.4443Z" fill="black"/>
<path d="M46.2223 38.9998C47.1868 39.0004 48.1362 38.7594 48.9836 38.2988C49.8311 37.8381 50.5496 37.1725 51.0736 36.3627C51.5976 35.5529 51.9104 34.6247 51.9834 33.6629C52.0564 32.7011 51.8872 31.7364 51.4914 30.8567L54.3473 28.5722C54.6464 28.3327 54.8382 27.9843 54.8804 27.6035C54.9227 27.2226 54.8119 26.8406 54.5724 26.5415C54.4539 26.3933 54.3073 26.27 54.1411 26.1785C53.9749 26.0871 53.7923 26.0292 53.6037 26.0083C53.2229 25.9661 52.8409 26.0769 52.5417 26.3163L49.6859 28.6009C48.9535 28.0518 48.1011 27.6845 47.1989 27.5295C46.2967 27.3745 45.3706 27.436 44.4969 27.7092C43.6232 27.9823 42.8269 28.4591 42.1737 29.1003C41.5204 29.7416 41.0289 30.5289 40.7396 31.3974C40.4504 32.2659 40.3716 33.1907 40.5099 34.0956C40.6482 35.0005 40.9995 35.8595 41.535 36.602C42.0704 37.3445 42.7746 37.9491 43.5896 38.3659C44.4045 38.7828 45.3069 39.0001 46.2223 38.9998ZM46.2223 30.3331C46.5813 30.3336 46.9371 30.4015 47.2711 30.5332L46.3295 31.2865L45.4771 30.4341C45.72 30.3679 45.9706 30.334 46.2223 30.3331ZM43.4343 32.477L45.2009 34.2434C45.4522 34.4948 45.7874 34.6446 46.1424 34.6642C46.4973 34.6839 46.847 34.572 47.1245 34.35L49.0745 32.7894C49.1413 33.2149 49.1121 33.65 48.9891 34.0628C48.866 34.4756 48.6522 34.8557 48.3633 35.1752C48.0744 35.4947 47.7177 35.7455 47.3193 35.9093C46.9209 36.0732 46.491 36.1458 46.0609 36.122C45.6308 36.0982 45.2115 35.9785 44.8336 35.7717C44.4558 35.5649 44.1289 35.2762 43.8771 34.9268C43.6252 34.5773 43.4546 34.176 43.3779 33.7521C43.3012 33.3283 43.3202 32.8926 43.4336 32.477H43.4343Z" fill="black"/>
<path d="M59.2222 28.8887H62.1111V31.7776H59.2222V28.8887Z" fill="black"/>
<path d="M65 28.8887H78V31.7776H65V28.8887Z" fill="black"/>
<path d="M59.2222 34.6665H70.7777V37.5554H59.2222V34.6665Z" fill="black"/>
<path d="M73.6666 34.6665H78V37.5554H73.6666V34.6665Z" fill="black"/>
<path d="M33.2222 62.1113H36.1111V65.0002H33.2222V62.1113Z" fill="black"/>
<path d="M33.2222 67.8892H43.3333V70.778H33.2222V67.8892Z" fill="black"/>
</svg>
